<svg xmlns="http://www.w3.org/2000/svg" xmlns:xlink="http://www.w3.org/1999/xlink" width="343" height="51" viewBox="0 0 343 51">
  <defs>
    <clipPath id="clip-logo_vertical-vector">
      <rect width="343" height="51"/>
    </clipPath>
  </defs>
  <g id="logo_vertical-vector" data-name="logo–vertical-vector" clip-path="url(#clip-logo_vertical-vector)">
    <g id="Group_271" data-name="Group 271" transform="translate(-119.276 -166)">
      <g id="Group_269" data-name="Group 269" transform="translate(0 1)">
        <path id="Path_327" data-name="Path 327" d="M39.5,0H29.1L13.731-26.985V0H3.276V-43.367H13.731L29.07-16.382V-43.367H39.5Zm40.33-17.275H62.967V0H52.512V-43.367H81.523V-35.3H62.967v9.978H79.825ZM126.917-35.3H113.9V0H103.446V-35.3H90.668v-8.072h36.249Z" transform="translate(117 211)"/>
        <path id="NFT" d="M115.4,1.5H101.946V-33.8H89.168V-44.867h39.249V-33.8H115.4Zm-10.455-3H112.4V-36.8h13.016v-5.072H92.168V-36.8h12.778Zm-40.479,3H51.012V-44.867H83.023V-33.8H64.467v6.978H81.325v11.042H64.467Zm-10.455-3h7.455V-18.775H78.325v-5.042H61.467V-36.8H80.023v-5.072H54.012ZM41,1.5H28.228l-13-22.821V1.5H1.776V-44.867H14.6L27.57-22.056V-44.867H41Zm-11.023-3H38V-41.867H30.57v31.16L12.858-41.867H4.776V-1.5h7.455V-32.65Z" transform="translate(119.224 211.867)" fill="#a529c7"/>
      </g>
      <g id="Group_270" data-name="Group 270">
        <rect id="Rectangle_33" data-name="Rectangle 33" width="201" height="49" rx="24.5" transform="translate(260 167)" fill="#a516c7"/>
        <path id="Path_328" data-name="Path 328" d="M26.414-10.11A10.9,10.9,0,0,1,24.732-4.6,10.149,10.149,0,0,1,20.416-.9,14.693,14.693,0,0,1,14.068.41,11.725,11.725,0,0,1,4.8-3.425Q1.415-7.26,1.415-14.253v-1.477a18.074,18.074,0,0,1,1.528-7.68,11.576,11.576,0,0,1,4.4-5.086,12.273,12.273,0,0,1,6.645-1.794,12.87,12.87,0,0,1,8.736,2.861,11.3,11.3,0,0,1,3.753,7.885H19.3a5.348,5.348,0,0,0-1.374-3.917,5.651,5.651,0,0,0-3.937-1.189,4.3,4.3,0,0,0-3.937,2.01Q8.8-20.631,8.736-16.222v2.112q0,4.778,1.2,6.829a4.39,4.39,0,0,0,4.132,2.051A5.527,5.527,0,0,0,17.862-6.4a4.961,4.961,0,0,0,1.395-3.712Zm14.254-9.7a6.917,6.917,0,0,1,5.66-2.789,6.9,6.9,0,0,1,5.537,2.174q1.866,2.174,1.907,6.419V0H46.841V-13.843a3.906,3.906,0,0,0-.718-2.594,3.084,3.084,0,0,0-2.44-.831,3.322,3.322,0,0,0-3.015,1.354V0H33.757V-31.5h6.911ZM61.156-11.3a13.1,13.1,0,0,1,1.292-5.917,9.239,9.239,0,0,1,3.712-3.989A11.179,11.179,0,0,1,71.841-22.6a10.2,10.2,0,0,1,7.854,3.086q2.871,3.086,2.871,8.4v.246a11.491,11.491,0,0,1-2.881,8.234A10.23,10.23,0,0,1,71.882.41a10.346,10.346,0,0,1-7.608-2.84,11.109,11.109,0,0,1-3.1-7.7Zm6.911.431a8.256,8.256,0,0,0,.964,4.512,3.211,3.211,0,0,0,2.851,1.436q3.691,0,3.773-5.681v-.7q0-5.968-3.814-5.968-3.466,0-3.753,5.147ZM89.15-11.3a13.1,13.1,0,0,1,1.292-5.917,9.239,9.239,0,0,1,3.712-3.989A11.179,11.179,0,0,1,99.834-22.6a10.2,10.2,0,0,1,7.854,3.086q2.871,3.086,2.871,8.4v.246a11.491,11.491,0,0,1-2.881,8.234A10.23,10.23,0,0,1,99.876.41a10.346,10.346,0,0,1-7.608-2.84,11.109,11.109,0,0,1-3.1-7.7Zm6.911.431a8.256,8.256,0,0,0,.964,4.512,3.211,3.211,0,0,0,2.851,1.436q3.691,0,3.773-5.681v-.7q0-5.968-3.814-5.968-3.466,0-3.753,5.147Zm33.572,4.635a1.6,1.6,0,0,0-.923-1.415A14.037,14.037,0,0,0,125.2-8.757a15.991,15.991,0,0,1-4.266-1.507,7.145,7.145,0,0,1-2.563-2.266,5.411,5.411,0,0,1-.882-3.056,6.133,6.133,0,0,1,2.522-5.035,10.391,10.391,0,0,1,6.6-1.979,11.512,11.512,0,0,1,7.055,1.989,6.221,6.221,0,0,1,2.666,5.229h-6.932q0-2.666-2.81-2.666a2.785,2.785,0,0,0-1.825.6,1.873,1.873,0,0,0-.738,1.507,1.719,1.719,0,0,0,.9,1.5,8.526,8.526,0,0,0,2.881.943,24.9,24.9,0,0,1,3.476.882q5,1.723,5,6.173A5.811,5.811,0,0,1,133.6-1.5,11.826,11.826,0,0,1,126.619.41a12.068,12.068,0,0,1-5.086-1.025A8.5,8.5,0,0,1,118.046-3.4,6.316,6.316,0,0,1,116.8-7.116h6.46a2.671,2.671,0,0,0,1.025,2.246,4.218,4.218,0,0,0,2.522.708,3.318,3.318,0,0,0,2.123-.574A1.837,1.837,0,0,0,129.633-6.234ZM154.674.41a11.407,11.407,0,0,1-8.265-3.045,10.517,10.517,0,0,1-3.158-7.926v-.574a13.627,13.627,0,0,1,1.261-6.009,9.229,9.229,0,0,1,3.681-4.03,11.113,11.113,0,0,1,5.742-1.425,9.605,9.605,0,0,1,7.383,2.9q2.707,2.9,2.707,8.09v2.687h-13.74a4.981,4.981,0,0,0,1.62,2.933,4.821,4.821,0,0,0,3.24,1.066,6.211,6.211,0,0,0,5.127-2.3l3.158,3.732a8.828,8.828,0,0,1-3.661,2.84A12.37,12.37,0,0,1,154.674.41Zm-.779-17.678q-3.035,0-3.609,4.02h6.973v-.533a3.423,3.423,0,0,0-.841-2.574A3.346,3.346,0,0,0,153.895-17.268Z" transform="translate(278 206)" fill="#fff"/>
      </g>
    </g>
  </g>
</svg>
